<svg width="224" height="75" viewBox="0 0 224 75" fill="none" xmlns="http://www.w3.org/2000/svg">
<rect width="224" height="75" fill="#383838"/>
<g clip-path="url(#clip0_0_1)">
<rect width="414" height="896" transform="translate(-101 -313)" fill="#111111"/>
<path d="M15.5965 53V43.2H18.8165C19.5819 43.2 20.2119 43.326 20.7065 43.578C21.2012 43.83 21.5652 44.1707 21.7985 44.6C22.0412 45.0293 22.1625 45.5147 22.1625 46.056C22.1625 46.588 22.0459 47.0687 21.8125 47.498C21.5792 47.9273 21.2152 48.2727 20.7205 48.534C20.2259 48.786 19.5912 48.912 18.8165 48.912H16.7725V53H15.5965ZM16.7725 47.918H18.7885C19.5725 47.918 20.1279 47.7547 20.4545 47.428C20.7905 47.092 20.9585 46.6347 20.9585 46.056C20.9585 45.468 20.7905 45.0107 20.4545 44.684C20.1279 44.348 19.5725 44.18 18.7885 44.18H16.7725V47.918ZM23.634 53V42.92H24.81V53H23.634ZM29.8595 53.168C29.1968 53.168 28.6088 53.0187 28.0955 52.72C27.5822 52.412 27.1762 51.9873 26.8775 51.446C26.5882 50.9047 26.4435 50.2653 26.4435 49.528C26.4435 48.8 26.5882 48.1653 26.8775 47.624C27.1668 47.0733 27.5682 46.6487 28.0815 46.35C28.6042 46.042 29.2062 45.888 29.8875 45.888C30.5595 45.888 31.1382 46.042 31.6235 46.35C32.1182 46.6487 32.4962 47.0453 32.7575 47.54C33.0188 48.0347 33.1495 48.5667 33.1495 49.136C33.1495 49.2387 33.1448 49.3413 33.1355 49.444C33.1355 49.5467 33.1355 49.6633 33.1355 49.794H27.6055C27.6335 50.326 27.7548 50.7693 27.9695 51.124C28.1935 51.4693 28.4688 51.7307 28.7955 51.908C29.1315 52.0853 29.4862 52.174 29.8595 52.174C30.3448 52.174 30.7508 52.062 31.0775 51.838C31.4042 51.614 31.6422 51.3107 31.7915 50.928H32.9535C32.7668 51.572 32.4075 52.1087 31.8755 52.538C31.3528 52.958 30.6808 53.168 29.8595 53.168ZM29.8595 46.882C29.2995 46.882 28.8002 47.0547 28.3615 47.4C27.9322 47.736 27.6848 48.2307 27.6195 48.884H31.9875C31.9595 48.2587 31.7448 47.7687 31.3435 47.414C30.9422 47.0593 30.4475 46.882 29.8595 46.882ZM37.0182 53.168C36.4395 53.168 35.9589 53.07 35.5762 52.874C35.1935 52.678 34.9089 52.4167 34.7222 52.09C34.5355 51.7633 34.4422 51.4087 34.4422 51.026C34.4422 50.3167 34.7129 49.7707 35.2542 49.388C35.7955 49.0053 36.5329 48.814 37.4662 48.814H39.3422V48.73C39.3422 48.1233 39.1835 47.666 38.8662 47.358C38.5489 47.0407 38.1242 46.882 37.5922 46.882C37.1349 46.882 36.7382 46.9987 36.4022 47.232C36.0755 47.456 35.8702 47.7873 35.7862 48.226H34.5822C34.6289 47.722 34.7969 47.2973 35.0862 46.952C35.3849 46.6067 35.7535 46.3453 36.1922 46.168C36.6309 45.9813 37.0975 45.888 37.5922 45.888C38.5629 45.888 39.2909 46.1493 39.7762 46.672C40.2709 47.1853 40.5182 47.8713 40.5182 48.73V53H39.4682L39.3982 51.754C39.2022 52.146 38.9129 52.482 38.5302 52.762C38.1569 53.0327 37.6529 53.168 37.0182 53.168ZM37.2002 52.174C37.6482 52.174 38.0309 52.0573 38.3482 51.824C38.6749 51.5907 38.9222 51.2873 39.0902 50.914C39.2582 50.5407 39.3422 50.1487 39.3422 49.738V49.724H37.5642C36.8735 49.724 36.3835 49.8453 36.0942 50.088C35.8142 50.3213 35.6742 50.6153 35.6742 50.97C35.6742 51.334 35.8049 51.628 36.0662 51.852C36.3369 52.0667 36.7149 52.174 37.2002 52.174ZM44.9424 53.168C44.1117 53.168 43.4211 52.958 42.8704 52.538C42.3197 52.118 41.9977 51.5487 41.9044 50.83H43.1084C43.1831 51.194 43.3744 51.5113 43.6824 51.782C43.9997 52.0433 44.4244 52.174 44.9564 52.174C45.4511 52.174 45.8151 52.0713 46.0484 51.866C46.2817 51.6513 46.3984 51.3993 46.3984 51.11C46.3984 50.69 46.2444 50.41 45.9364 50.27C45.6377 50.13 45.2131 50.004 44.6624 49.892C44.2891 49.8173 43.9157 49.71 43.5424 49.57C43.1691 49.43 42.8564 49.234 42.6044 48.982C42.3524 48.7207 42.2264 48.38 42.2264 47.96C42.2264 47.3533 42.4504 46.8587 42.8984 46.476C43.3557 46.084 43.9717 45.888 44.7464 45.888C45.4837 45.888 46.0857 46.0747 46.5524 46.448C47.0284 46.812 47.3037 47.3347 47.3784 48.016H46.2164C46.1697 47.6613 46.0157 47.386 45.7544 47.19C45.5024 46.9847 45.1617 46.882 44.7324 46.882C44.3124 46.882 43.9857 46.9707 43.7524 47.148C43.5284 47.3253 43.4164 47.5587 43.4164 47.848C43.4164 48.128 43.5611 48.3473 43.8504 48.506C44.1491 48.6647 44.5504 48.8 45.0544 48.912C45.4837 49.0053 45.8897 49.122 46.2724 49.262C46.6644 49.3927 46.9817 49.5933 47.2244 49.864C47.4764 50.1253 47.6024 50.508 47.6024 51.012C47.6117 51.6373 47.3737 52.1553 46.8884 52.566C46.4124 52.9673 45.7637 53.168 44.9424 53.168ZM52.4044 53.168C51.7417 53.168 51.1537 53.0187 50.6404 52.72C50.1271 52.412 49.7211 51.9873 49.4224 51.446C49.1331 50.9047 48.9884 50.2653 48.9884 49.528C48.9884 48.8 49.1331 48.1653 49.4224 47.624C49.7117 47.0733 50.1131 46.6487 50.6264 46.35C51.1491 46.042 51.7511 45.888 52.4324 45.888C53.1044 45.888 53.6831 46.042 54.1684 46.35C54.6631 46.6487 55.0411 47.0453 55.3024 47.54C55.5637 48.0347 55.6944 48.5667 55.6944 49.136C55.6944 49.2387 55.6897 49.3413 55.6804 49.444C55.6804 49.5467 55.6804 49.6633 55.6804 49.794H50.1504C50.1784 50.326 50.2997 50.7693 50.5144 51.124C50.7384 51.4693 51.0137 51.7307 51.3404 51.908C51.6764 52.0853 52.0311 52.174 52.4044 52.174C52.8897 52.174 53.2957 52.062 53.6224 51.838C53.9491 51.614 54.1871 51.3107 54.3364 50.928H55.4984C55.3117 51.572 54.9524 52.1087 54.4204 52.538C53.8977 52.958 53.2257 53.168 52.4044 53.168ZM52.4044 46.882C51.8444 46.882 51.3451 47.0547 50.9064 47.4C50.4771 47.736 50.2297 48.2307 50.1644 48.884H54.5324C54.5044 48.2587 54.2897 47.7687 53.8884 47.414C53.4871 47.0593 52.9924 46.882 52.4044 46.882ZM64.0802 53.168C63.4175 53.168 62.8295 53.0187 62.3162 52.72C61.8029 52.412 61.3969 51.9873 61.0982 51.446C60.8089 50.9047 60.6642 50.2653 60.6642 49.528C60.6642 48.8 60.8089 48.1653 61.0982 47.624C61.3875 47.0733 61.7889 46.6487 62.3022 46.35C62.8249 46.042 63.4269 45.888 64.1082 45.888C64.7802 45.888 65.3589 46.042 65.8442 46.35C66.3389 46.6487 66.7169 47.0453 66.9782 47.54C67.2395 48.0347 67.3702 48.5667 67.3702 49.136C67.3702 49.2387 67.3655 49.3413 67.3562 49.444C67.3562 49.5467 67.3562 49.6633 67.3562 49.794H61.8262C61.8542 50.326 61.9755 50.7693 62.1902 51.124C62.4142 51.4693 62.6895 51.7307 63.0162 51.908C63.3522 52.0853 63.7069 52.174 64.0802 52.174C64.5655 52.174 64.9715 52.062 65.2982 51.838C65.6249 51.614 65.8629 51.3107 66.0122 50.928H67.1742C66.9875 51.572 66.6282 52.1087 66.0962 52.538C65.5735 52.958 64.9015 53.168 64.0802 53.168ZM64.0802 46.882C63.5202 46.882 63.0209 47.0547 62.5822 47.4C62.1529 47.736 61.9055 48.2307 61.8402 48.884H66.2082C66.1802 48.2587 65.9655 47.7687 65.5642 47.414C65.1629 47.0593 64.6682 46.882 64.0802 46.882ZM68.9289 53V46.056H69.9929L70.0629 47.302C70.2869 46.8633 70.6089 46.518 71.0289 46.266C71.4489 46.014 71.9249 45.888 72.4569 45.888C73.2782 45.888 73.9316 46.14 74.4169 46.644C74.9116 47.1387 75.1589 47.904 75.1589 48.94V53H73.9829V49.066C73.9829 47.6193 73.3856 46.896 72.1909 46.896C71.5936 46.896 71.0942 47.1153 70.6929 47.554C70.3009 47.9833 70.1049 48.5993 70.1049 49.402V53H68.9289ZM79.6846 53C79.0499 53 78.5506 52.846 78.1866 52.538C77.8226 52.23 77.6406 51.6747 77.6406 50.872V47.05H76.4366V46.056H77.6406L77.7946 44.39H78.8166V46.056H80.8606V47.05H78.8166V50.872C78.8166 51.3107 78.9053 51.6093 79.0826 51.768C79.2599 51.9173 79.5726 51.992 80.0206 51.992H80.7486V53H79.6846ZM85.2853 53.168C84.6226 53.168 84.0346 53.0187 83.5213 52.72C83.0079 52.412 82.6019 51.9873 82.3033 51.446C82.0139 50.9047 81.8693 50.2653 81.8693 49.528C81.8693 48.8 82.0139 48.1653 82.3033 47.624C82.5926 47.0733 82.9939 46.6487 83.5073 46.35C84.0299 46.042 84.6319 45.888 85.3133 45.888C85.9853 45.888 86.5639 46.042 87.0493 46.35C87.5439 46.6487 87.9219 47.0453 88.1833 47.54C88.4446 48.0347 88.5753 48.5667 88.5753 49.136C88.5753 49.2387 88.5706 49.3413 88.5613 49.444C88.5613 49.5467 88.5613 49.6633 88.5613 49.794H83.0313C83.0593 50.326 83.1806 50.7693 83.3953 51.124C83.6193 51.4693 83.8946 51.7307 84.2213 51.908C84.5573 52.0853 84.9119 52.174 85.2853 52.174C85.7706 52.174 86.1766 52.062 86.5033 51.838C86.8299 51.614 87.0679 51.3107 87.2173 50.928H88.3793C88.1926 51.572 87.8333 52.1087 87.3013 52.538C86.7786 52.958 86.1066 53.168 85.2853 53.168ZM85.2853 46.882C84.7253 46.882 84.2259 47.0547 83.7873 47.4C83.3579 47.736 83.1106 48.2307 83.0453 48.884H87.4133C87.3853 48.2587 87.1706 47.7687 86.7693 47.414C86.3679 47.0593 85.8733 46.882 85.2853 46.882ZM90.134 53V46.056H91.198L91.296 47.386C91.5106 46.9287 91.8373 46.5647 92.276 46.294C92.7146 46.0233 93.256 45.888 93.9 45.888V47.12H93.578C93.1673 47.12 92.7893 47.1947 92.444 47.344C92.0986 47.484 91.8233 47.7267 91.618 48.072C91.4126 48.4173 91.31 48.8933 91.31 49.5V53H90.134ZM102.523 53.168C101.814 53.168 101.216 53.0373 100.731 52.776C100.246 52.5053 99.8537 52.146 99.555 51.698C99.2657 51.25 99.051 50.7507 98.911 50.2C98.7803 49.64 98.715 49.0707 98.715 48.492C98.715 47.4093 98.8643 46.462 99.163 45.65C99.4617 44.8287 99.891 44.1893 100.451 43.732C101.02 43.2653 101.706 43.032 102.509 43.032C103.125 43.032 103.652 43.1533 104.091 43.396C104.53 43.6387 104.875 43.9653 105.127 44.376C105.388 44.7773 105.552 45.2253 105.617 45.72H104.525C104.422 45.188 104.194 44.7773 103.839 44.488C103.484 44.1987 103.036 44.054 102.495 44.054C101.758 44.054 101.137 44.404 100.633 45.104C100.138 45.7947 99.8723 46.8773 99.835 48.352C100.059 47.9133 100.414 47.5353 100.899 47.218C101.394 46.8913 101.986 46.728 102.677 46.728C103.237 46.728 103.76 46.8587 104.245 47.12C104.74 47.3813 105.141 47.75 105.449 48.226C105.757 48.6927 105.911 49.2433 105.911 49.878C105.911 50.4287 105.776 50.956 105.505 51.46C105.234 51.964 104.842 52.3747 104.329 52.692C103.825 53.0093 103.223 53.168 102.523 53.168ZM102.439 52.132C102.878 52.132 103.27 52.0387 103.615 51.852C103.96 51.6653 104.231 51.4087 104.427 51.082C104.623 50.746 104.721 50.3633 104.721 49.934C104.721 49.2713 104.502 48.744 104.063 48.352C103.634 47.9507 103.092 47.75 102.439 47.75C102 47.75 101.608 47.8527 101.263 48.058C100.918 48.254 100.642 48.52 100.437 48.856C100.241 49.192 100.143 49.556 100.143 49.948C100.143 50.368 100.241 50.746 100.437 51.082C100.642 51.4087 100.918 51.6653 101.263 51.852C101.608 52.0387 102 52.132 102.439 52.132ZM107.603 49.43V48.436H113.147V49.43H107.603ZM118.071 53.168C117.38 53.168 116.774 53.0093 116.251 52.692C115.738 52.3747 115.336 51.9407 115.047 51.39C114.767 50.8393 114.627 50.214 114.627 49.514C114.627 48.814 114.772 48.1933 115.061 47.652C115.35 47.1013 115.752 46.672 116.265 46.364C116.778 46.0467 117.385 45.888 118.085 45.888C118.654 45.888 119.158 46.0047 119.597 46.238C120.036 46.4713 120.376 46.798 120.619 47.218V42.92H121.795V53H120.731L120.619 51.852C120.395 52.188 120.073 52.4913 119.653 52.762C119.233 53.0327 118.706 53.168 118.071 53.168ZM118.197 52.146C118.664 52.146 119.074 52.0387 119.429 51.824C119.793 51.6 120.073 51.292 120.269 50.9C120.474 50.508 120.577 50.0507 120.577 49.528C120.577 49.0053 120.474 48.548 120.269 48.156C120.073 47.764 119.793 47.4607 119.429 47.246C119.074 47.022 118.664 46.91 118.197 46.91C117.74 46.91 117.329 47.022 116.965 47.246C116.61 47.4607 116.33 47.764 116.125 48.156C115.929 48.548 115.831 49.0053 115.831 49.528C115.831 50.0507 115.929 50.508 116.125 50.9C116.33 51.292 116.61 51.6 116.965 51.824C117.329 52.0387 117.74 52.146 118.197 52.146ZM124.426 44.516C124.193 44.516 123.997 44.4413 123.838 44.292C123.689 44.1333 123.614 43.9373 123.614 43.704C123.614 43.48 123.689 43.2933 123.838 43.144C123.997 42.9947 124.193 42.92 124.426 42.92C124.65 42.92 124.841 42.9947 125 43.144C125.159 43.2933 125.238 43.48 125.238 43.704C125.238 43.9373 125.159 44.1333 125 44.292C124.841 44.4413 124.65 44.516 124.426 44.516ZM123.838 53V46.056H125.014V53H123.838ZM129.806 50.816C129.414 50.816 129.054 50.7647 128.728 50.662L128.028 51.32C128.13 51.3947 128.256 51.46 128.406 51.516C128.564 51.5627 128.788 51.6093 129.078 51.656C129.367 51.6933 129.773 51.7353 130.296 51.782C131.229 51.8473 131.896 52.062 132.298 52.426C132.699 52.79 132.9 53.266 132.9 53.854C132.9 54.2553 132.788 54.638 132.564 55.002C132.349 55.366 132.013 55.6647 131.556 55.898C131.108 56.1313 130.529 56.248 129.82 56.248C129.194 56.248 128.639 56.164 128.154 55.996C127.668 55.8373 127.29 55.59 127.02 55.254C126.749 54.9273 126.614 54.512 126.614 54.008C126.614 53.7467 126.684 53.462 126.824 53.154C126.964 52.8553 127.225 52.5707 127.608 52.3C127.402 52.216 127.225 52.1273 127.076 52.034C126.936 51.9313 126.805 51.8193 126.684 51.698V51.376L127.874 50.2C127.323 49.7333 127.048 49.1173 127.048 48.352C127.048 47.8947 127.155 47.4793 127.37 47.106C127.584 46.7327 127.897 46.4387 128.308 46.224C128.718 46 129.218 45.888 129.806 45.888C130.207 45.888 130.571 45.944 130.898 46.056H133.46V46.938L132.158 46.994C132.428 47.386 132.564 47.8387 132.564 48.352C132.564 48.8093 132.452 49.2247 132.228 49.598C132.013 49.9713 131.7 50.27 131.29 50.494C130.888 50.7087 130.394 50.816 129.806 50.816ZM129.806 49.85C130.3 49.85 130.692 49.724 130.982 49.472C131.28 49.2107 131.43 48.8373 131.43 48.352C131.43 47.876 131.28 47.512 130.982 47.26C130.692 46.9987 130.3 46.868 129.806 46.868C129.302 46.868 128.9 46.9987 128.602 47.26C128.312 47.512 128.168 47.876 128.168 48.352C128.168 48.8373 128.312 49.2107 128.602 49.472C128.9 49.724 129.302 49.85 129.806 49.85ZM127.762 53.896C127.762 54.3627 127.958 54.708 128.35 54.932C128.742 55.1653 129.232 55.282 129.82 55.282C130.398 55.282 130.86 55.156 131.206 54.904C131.56 54.652 131.738 54.316 131.738 53.896C131.738 53.5973 131.616 53.336 131.374 53.112C131.131 52.8973 130.683 52.7713 130.03 52.734C129.516 52.6967 129.073 52.65 128.7 52.594C128.317 52.7993 128.065 53.0187 127.944 53.252C127.822 53.4947 127.762 53.7093 127.762 53.896ZM135.5 44.516C135.267 44.516 135.071 44.4413 134.912 44.292C134.763 44.1333 134.688 43.9373 134.688 43.704C134.688 43.48 134.763 43.2933 134.912 43.144C135.071 42.9947 135.267 42.92 135.5 42.92C135.724 42.92 135.916 42.9947 136.074 43.144C136.233 43.2933 136.312 43.48 136.312 43.704C136.312 43.9373 136.233 44.1333 136.074 44.292C135.916 44.4413 135.724 44.516 135.5 44.516ZM134.912 53V46.056H136.088V53H134.912ZM140.88 53C140.245 53 139.746 52.846 139.382 52.538C139.018 52.23 138.836 51.6747 138.836 50.872V47.05H137.632V46.056H138.836L138.99 44.39H140.012V46.056H142.056V47.05H140.012V50.872C140.012 51.3107 140.101 51.6093 140.278 51.768C140.455 51.9173 140.768 51.992 141.216 51.992H141.944V53H140.88ZM151.777 53.168C150.816 53.168 149.971 52.958 149.243 52.538C148.524 52.1087 147.96 51.5113 147.549 50.746C147.148 49.9807 146.947 49.0987 146.947 48.1C146.947 47.1013 147.148 46.224 147.549 45.468C147.96 44.7027 148.524 44.1053 149.243 43.676C149.971 43.2467 150.816 43.032 151.777 43.032C152.748 43.032 153.592 43.2467 154.311 43.676C155.039 44.1053 155.604 44.7027 156.005 45.468C156.406 46.224 156.607 47.1013 156.607 48.1C156.607 49.0987 156.406 49.9807 156.005 50.746C155.604 51.5113 155.039 52.1087 154.311 52.538C153.592 52.958 152.748 53.168 151.777 53.168ZM151.777 52.132C152.496 52.132 153.126 51.9733 153.667 51.656C154.218 51.3293 154.642 50.8673 154.941 50.27C155.249 49.6633 155.403 48.94 155.403 48.1C155.403 47.26 155.249 46.5413 154.941 45.944C154.642 45.3467 154.218 44.8893 153.667 44.572C153.126 44.2453 152.496 44.082 151.777 44.082C151.058 44.082 150.424 44.2453 149.873 44.572C149.332 44.8893 148.907 45.3467 148.599 45.944C148.3 46.5413 148.151 47.26 148.151 48.1C148.151 48.94 148.3 49.6633 148.599 50.27C148.907 50.8673 149.332 51.3293 149.873 51.656C150.424 51.9733 151.058 52.132 151.777 52.132ZM160.094 53V44.166H157.168V43.2H164.196V44.166H161.27V53H160.094ZM165.632 53V43.2H168.852C169.617 43.2 170.247 43.326 170.742 43.578C171.236 43.83 171.6 44.1707 171.834 44.6C172.076 45.0293 172.198 45.5147 172.198 46.056C172.198 46.588 172.081 47.0687 171.848 47.498C171.614 47.9273 171.25 48.2727 170.756 48.534C170.261 48.786 169.626 48.912 168.852 48.912H166.808V53H165.632ZM166.808 47.918H168.824C169.608 47.918 170.163 47.7547 170.49 47.428C170.826 47.092 170.994 46.6347 170.994 46.056C170.994 45.468 170.826 45.0107 170.49 44.684C170.163 44.348 169.608 44.18 168.824 44.18H166.808V47.918ZM180.566 53.168C179.904 53.168 179.306 53.0187 178.774 52.72C178.252 52.412 177.836 51.9873 177.528 51.446C177.23 50.8953 177.08 50.256 177.08 49.528C177.08 48.8 177.23 48.1653 177.528 47.624C177.836 47.0733 178.252 46.6487 178.774 46.35C179.306 46.042 179.904 45.888 180.566 45.888C181.388 45.888 182.078 46.1027 182.638 46.532C183.208 46.9613 183.567 47.5353 183.716 48.254H182.512C182.419 47.8247 182.19 47.4933 181.826 47.26C181.462 47.0173 181.038 46.896 180.552 46.896C180.16 46.896 179.792 46.994 179.446 47.19C179.101 47.386 178.821 47.68 178.606 48.072C178.392 48.464 178.284 48.9493 178.284 49.528C178.284 50.1067 178.392 50.592 178.606 50.984C178.821 51.376 179.101 51.6747 179.446 51.88C179.792 52.076 180.16 52.174 180.552 52.174C181.038 52.174 181.462 52.0573 181.826 51.824C182.19 51.5813 182.419 51.2407 182.512 50.802H183.716C183.576 51.502 183.222 52.0713 182.652 52.51C182.083 52.9487 181.388 53.168 180.566 53.168ZM188.523 53.168C187.869 53.168 187.281 53.0187 186.759 52.72C186.236 52.4213 185.821 52.0013 185.513 51.46C185.214 50.9093 185.065 50.2653 185.065 49.528C185.065 48.7907 185.219 48.1513 185.527 47.61C185.835 47.0593 186.25 46.6347 186.773 46.336C187.305 46.0373 187.897 45.888 188.551 45.888C189.204 45.888 189.792 46.0373 190.315 46.336C190.837 46.6347 191.248 47.0593 191.547 47.61C191.855 48.1513 192.009 48.7907 192.009 49.528C192.009 50.2653 191.855 50.9093 191.547 51.46C191.239 52.0013 190.819 52.4213 190.287 52.72C189.764 53.0187 189.176 53.168 188.523 53.168ZM188.523 52.16C188.924 52.16 189.297 52.062 189.643 51.866C189.988 51.67 190.268 51.376 190.483 50.984C190.697 50.592 190.805 50.1067 190.805 49.528C190.805 48.9493 190.697 48.464 190.483 48.072C190.277 47.68 190.002 47.386 189.657 47.19C189.311 46.994 188.943 46.896 188.551 46.896C188.149 46.896 187.776 46.994 187.431 47.19C187.085 47.386 186.805 47.68 186.591 48.072C186.376 48.464 186.269 48.9493 186.269 49.528C186.269 50.1067 186.376 50.592 186.591 50.984C186.805 51.376 187.081 51.67 187.417 51.866C187.762 52.062 188.131 52.16 188.523 52.16ZM196.794 53.168C196.103 53.168 195.496 53.0093 194.974 52.692C194.46 52.3747 194.059 51.9407 193.77 51.39C193.49 50.8393 193.35 50.214 193.35 49.514C193.35 48.814 193.494 48.1933 193.784 47.652C194.073 47.1013 194.474 46.672 194.988 46.364C195.501 46.0467 196.108 45.888 196.808 45.888C197.377 45.888 197.881 46.0047 198.32 46.238C198.758 46.4713 199.099 46.798 199.342 47.218V42.92H200.518V53H199.454L199.342 51.852C199.118 52.188 198.796 52.4913 198.376 52.762C197.956 53.0327 197.428 53.168 196.794 53.168ZM196.92 52.146C197.386 52.146 197.797 52.0387 198.152 51.824C198.516 51.6 198.796 51.292 198.992 50.9C199.197 50.508 199.3 50.0507 199.3 49.528C199.3 49.0053 199.197 48.548 198.992 48.156C198.796 47.764 198.516 47.4607 198.152 47.246C197.797 47.022 197.386 46.91 196.92 46.91C196.462 46.91 196.052 47.022 195.688 47.246C195.333 47.4607 195.053 47.764 194.848 48.156C194.652 48.548 194.554 49.0053 194.554 49.528C194.554 50.0507 194.652 50.508 194.848 50.9C195.053 51.292 195.333 51.6 195.688 51.824C196.052 52.0387 196.462 52.146 196.92 52.146ZM205.557 53.168C204.894 53.168 204.306 53.0187 203.793 52.72C203.279 52.412 202.873 51.9873 202.575 51.446C202.285 50.9047 202.141 50.2653 202.141 49.528C202.141 48.8 202.285 48.1653 202.575 47.624C202.864 47.0733 203.265 46.6487 203.779 46.35C204.301 46.042 204.903 45.888 205.585 45.888C206.257 45.888 206.835 46.042 207.321 46.35C207.815 46.6487 208.193 47.0453 208.455 47.54C208.716 48.0347 208.847 48.5667 208.847 49.136C208.847 49.2387 208.842 49.3413 208.833 49.444C208.833 49.5467 208.833 49.6633 208.833 49.794H203.303C203.331 50.326 203.452 50.7693 203.667 51.124C203.891 51.4693 204.166 51.7307 204.493 51.908C204.829 52.0853 205.183 52.174 205.557 52.174C206.042 52.174 206.448 52.062 206.775 51.838C207.101 51.614 207.339 51.3107 207.489 50.928H208.651C208.464 51.572 208.105 52.1087 207.573 52.538C207.05 52.958 206.378 53.168 205.557 53.168ZM205.557 46.882C204.997 46.882 204.497 47.0547 204.059 47.4C203.629 47.736 203.382 48.2307 203.317 48.884H207.685C207.657 48.2587 207.442 47.7687 207.041 47.414C206.639 47.0593 206.145 46.882 205.557 46.882ZM11.3116 71C10.6769 71 10.1776 70.846 9.81356 70.538C9.44956 70.23 9.26756 69.6747 9.26756 68.872V65.05H8.06356V64.056H9.26756L9.42156 62.39H10.4436V64.056H12.4876V65.05H10.4436V68.872C10.4436 69.3107 10.5322 69.6093 10.7096 69.768C10.8869 69.9173 11.1996 69.992 11.6476 69.992H12.3756V71H11.3116ZM13.9816 71V60.92H15.1576V65.246C15.391 64.8167 15.7223 64.4853 16.1516 64.252C16.581 64.0093 17.0476 63.888 17.5516 63.888C18.3543 63.888 18.9983 64.14 19.4836 64.644C19.969 65.1387 20.2116 65.904 20.2116 66.94V71H19.0496V67.066C19.0496 65.6193 18.4663 64.896 17.2996 64.896C16.693 64.896 16.1843 65.1153 15.7736 65.554C15.363 65.9833 15.1576 66.5993 15.1576 67.402V71H13.9816ZM24.3033 71.168C23.7247 71.168 23.244 71.07 22.8613 70.874C22.4787 70.678 22.194 70.4167 22.0073 70.09C21.8207 69.7633 21.7273 69.4087 21.7273 69.026C21.7273 68.3167 21.998 67.7707 22.5393 67.388C23.0807 67.0053 23.818 66.814 24.7513 66.814H26.6273V66.73C26.6273 66.1233 26.4687 65.666 26.1513 65.358C25.834 65.0407 25.4093 64.882 24.8773 64.882C24.42 64.882 24.0233 64.9987 23.6873 65.232C23.3607 65.456 23.1553 65.7873 23.0713 66.226H21.8673C21.914 65.722 22.082 65.2973 22.3713 64.952C22.67 64.6067 23.0387 64.3453 23.4773 64.168C23.916 63.9813 24.3827 63.888 24.8773 63.888C25.848 63.888 26.576 64.1493 27.0613 64.672C27.556 65.1853 27.8033 65.8713 27.8033 66.73V71H26.7533L26.6833 69.754C26.4873 70.146 26.198 70.482 25.8153 70.762C25.442 71.0327 24.938 71.168 24.3033 71.168ZM24.4853 70.174C24.9333 70.174 25.316 70.0573 25.6333 69.824C25.96 69.5907 26.2073 69.2873 26.3753 68.914C26.5433 68.5407 26.6273 68.1487 26.6273 67.738V67.724H24.8493C24.1587 67.724 23.6687 67.8453 23.3793 68.088C23.0993 68.3213 22.9593 68.6153 22.9593 68.97C22.9593 69.334 23.09 69.628 23.3513 69.852C23.622 70.0667 24 70.174 24.4853 70.174ZM32.1202 71C31.4855 71 30.9862 70.846 30.6222 70.538C30.2582 70.23 30.0762 69.6747 30.0762 68.872V65.05H28.8722V64.056H30.0762L30.2302 62.39H31.2522V64.056H33.2962V65.05H31.2522V68.872C31.2522 69.3107 31.3408 69.6093 31.5182 69.768C31.6955 69.9173 32.0082 69.992 32.4562 69.992H33.1842V71H32.1202ZM41.1553 71.168C40.3246 71.168 39.634 70.958 39.0833 70.538C38.5326 70.118 38.2106 69.5487 38.1173 68.83H39.3213C39.396 69.194 39.5873 69.5113 39.8953 69.782C40.2126 70.0433 40.6373 70.174 41.1693 70.174C41.664 70.174 42.028 70.0713 42.2613 69.866C42.4946 69.6513 42.6113 69.3993 42.6113 69.11C42.6113 68.69 42.4573 68.41 42.1493 68.27C41.8506 68.13 41.426 68.004 40.8753 67.892C40.502 67.8173 40.1286 67.71 39.7553 67.57C39.382 67.43 39.0693 67.234 38.8173 66.982C38.5653 66.7207 38.4393 66.38 38.4393 65.96C38.4393 65.3533 38.6633 64.8587 39.1113 64.476C39.5686 64.084 40.1846 63.888 40.9593 63.888C41.6966 63.888 42.2986 64.0747 42.7653 64.448C43.2413 64.812 43.5166 65.3347 43.5913 66.016H42.4293C42.3826 65.6613 42.2286 65.386 41.9673 65.19C41.7153 64.9847 41.3746 64.882 40.9453 64.882C40.5253 64.882 40.1986 64.9707 39.9653 65.148C39.7413 65.3253 39.6293 65.5587 39.6293 65.848C39.6293 66.128 39.774 66.3473 40.0633 66.506C40.362 66.6647 40.7633 66.8 41.2673 66.912C41.6966 67.0053 42.1026 67.122 42.4853 67.262C42.8773 67.3927 43.1946 67.5933 43.4373 67.864C43.6893 68.1253 43.8153 68.508 43.8153 69.012C43.8246 69.6373 43.5866 70.1553 43.1013 70.566C42.6253 70.9673 41.9766 71.168 41.1553 71.168ZM48.6173 71.168C47.9546 71.168 47.3666 71.0187 46.8533 70.72C46.34 70.412 45.934 69.9873 45.6353 69.446C45.346 68.9047 45.2013 68.2653 45.2013 67.528C45.2013 66.8 45.346 66.1653 45.6353 65.624C45.9246 65.0733 46.326 64.6487 46.8393 64.35C47.362 64.042 47.964 63.888 48.6453 63.888C49.3173 63.888 49.896 64.042 50.3813 64.35C50.876 64.6487 51.254 65.0453 51.5153 65.54C51.7766 66.0347 51.9073 66.5667 51.9073 67.136C51.9073 67.2387 51.9026 67.3413 51.8933 67.444C51.8933 67.5467 51.8933 67.6633 51.8933 67.794H46.3633C46.3913 68.326 46.5126 68.7693 46.7273 69.124C46.9513 69.4693 47.2266 69.7307 47.5533 69.908C47.8893 70.0853 48.244 70.174 48.6173 70.174C49.1026 70.174 49.5086 70.062 49.8353 69.838C50.162 69.614 50.4 69.3107 50.5493 68.928H51.7113C51.5246 69.572 51.1653 70.1087 50.6333 70.538C50.1106 70.958 49.4386 71.168 48.6173 71.168ZM48.6173 64.882C48.0573 64.882 47.558 65.0547 47.1193 65.4C46.69 65.736 46.4426 66.2307 46.3773 66.884H50.7453C50.7173 66.2587 50.5026 65.7687 50.1013 65.414C49.7 65.0593 49.2053 64.882 48.6173 64.882ZM53.466 71V64.056H54.53L54.6 65.302C54.824 64.8633 55.146 64.518 55.566 64.266C55.986 64.014 56.462 63.888 56.994 63.888C57.8153 63.888 58.4687 64.14 58.954 64.644C59.4487 65.1387 59.696 65.904 59.696 66.94V71H58.52V67.066C58.52 65.6193 57.9227 64.896 56.728 64.896C56.1307 64.896 55.6313 65.1153 55.23 65.554C54.838 65.9833 54.642 66.5993 54.642 67.402V71H53.466ZM64.2217 71C63.5871 71 63.0877 70.846 62.7237 70.538C62.3597 70.23 62.1777 69.6747 62.1777 68.872V65.05H60.9737V64.056H62.1777L62.3317 62.39H63.3537V64.056H65.3977V65.05H63.3537V68.872C63.3537 69.3107 63.4424 69.6093 63.6197 69.768C63.7971 69.9173 64.1097 69.992 64.5577 69.992H65.2857V71H64.2217ZM73.3409 71C72.7062 71 72.2069 70.846 71.8429 70.538C71.4789 70.23 71.2969 69.6747 71.2969 68.872V65.05H70.0929V64.056H71.2969L71.4509 62.39H72.4729V64.056H74.5169V65.05H72.4729V68.872C72.4729 69.3107 72.5615 69.6093 72.7389 69.768C72.9162 69.9173 73.2289 69.992 73.6769 69.992H74.4049V71H73.3409ZM78.9835 71.168C78.3302 71.168 77.7422 71.0187 77.2195 70.72C76.6968 70.4213 76.2815 70.0013 75.9735 69.46C75.6748 68.9093 75.5255 68.2653 75.5255 67.528C75.5255 66.7907 75.6795 66.1513 75.9875 65.61C76.2955 65.0593 76.7108 64.6347 77.2335 64.336C77.7655 64.0373 78.3582 63.888 79.0115 63.888C79.6648 63.888 80.2528 64.0373 80.7755 64.336C81.2982 64.6347 81.7088 65.0593 82.0075 65.61C82.3155 66.1513 82.4695 66.7907 82.4695 67.528C82.4695 68.2653 82.3155 68.9093 82.0075 69.46C81.6995 70.0013 81.2795 70.4213 80.7475 70.72C80.2248 71.0187 79.6368 71.168 78.9835 71.168ZM78.9835 70.16C79.3848 70.16 79.7582 70.062 80.1035 69.866C80.4488 69.67 80.7288 69.376 80.9435 68.984C81.1582 68.592 81.2655 68.1067 81.2655 67.528C81.2655 66.9493 81.1582 66.464 80.9435 66.072C80.7382 65.68 80.4628 65.386 80.1175 65.19C79.7722 64.994 79.4035 64.896 79.0115 64.896C78.6102 64.896 78.2368 64.994 77.8915 65.19C77.5462 65.386 77.2662 65.68 77.0515 66.072C76.8368 66.464 76.7295 66.9493 76.7295 67.528C76.7295 68.1067 76.8368 68.592 77.0515 68.984C77.2662 69.376 77.5415 69.67 77.8775 69.866C78.2228 70.062 78.5915 70.16 78.9835 70.16ZM88.5658 74.08L90.2878 70.328H89.8818L87.1238 64.056H88.3978L90.6938 69.46L93.1298 64.056H94.3478L89.7978 74.08H88.5658ZM98.0968 71.168C97.4435 71.168 96.8555 71.0187 96.3328 70.72C95.8101 70.4213 95.3948 70.0013 95.0868 69.46C94.7881 68.9093 94.6388 68.2653 94.6388 67.528C94.6388 66.7907 94.7928 66.1513 95.1008 65.61C95.4088 65.0593 95.8241 64.6347 96.3468 64.336C96.8788 64.0373 97.4715 63.888 98.1248 63.888C98.7781 63.888 99.3661 64.0373 99.8888 64.336C100.411 64.6347 100.822 65.0593 101.121 65.61C101.429 66.1513 101.583 66.7907 101.583 67.528C101.583 68.2653 101.429 68.9093 101.121 69.46C100.813 70.0013 100.393 70.4213 99.8608 70.72C99.3381 71.0187 98.7501 71.168 98.0968 71.168ZM98.0968 70.16C98.4981 70.16 98.8715 70.062 99.2168 69.866C99.5621 69.67 99.8421 69.376 100.057 68.984C100.271 68.592 100.379 68.1067 100.379 67.528C100.379 66.9493 100.271 66.464 100.057 66.072C99.8515 65.68 99.5761 65.386 99.2308 65.19C98.8855 64.994 98.5168 64.896 98.1248 64.896C97.7235 64.896 97.3501 64.994 97.0048 65.19C96.6595 65.386 96.3795 65.68 96.1648 66.072C95.9501 66.464 95.8428 66.9493 95.8428 67.528C95.8428 68.1067 95.9501 68.592 96.1648 68.984C96.3795 69.376 96.6548 69.67 96.9908 69.866C97.3361 70.062 97.7048 70.16 98.0968 70.16ZM105.752 71.168C104.931 71.168 104.277 70.9207 103.792 70.426C103.307 69.922 103.064 69.152 103.064 68.116V64.056H104.24V67.99C104.24 69.4367 104.833 70.16 106.018 70.16C106.625 70.16 107.124 69.9453 107.516 69.516C107.917 69.0773 108.118 68.4567 108.118 67.654V64.056H109.294V71H108.23L108.146 69.754C107.931 70.1927 107.609 70.538 107.18 70.79C106.76 71.042 106.284 71.168 105.752 71.168ZM111.23 71V64.056H112.294L112.392 65.386C112.606 64.9287 112.933 64.5647 113.372 64.294C113.81 64.0233 114.352 63.888 114.996 63.888V65.12H114.674C114.263 65.12 113.885 65.1947 113.54 65.344C113.194 65.484 112.919 65.7267 112.714 66.072C112.508 66.4173 112.406 66.8933 112.406 67.5V71H111.23ZM120.021 74.08V64.056H121.085L121.197 65.204C121.421 64.868 121.738 64.5647 122.149 64.294C122.569 64.0233 123.101 63.888 123.745 63.888C124.435 63.888 125.037 64.0467 125.551 64.364C126.064 64.6813 126.461 65.1153 126.741 65.666C127.03 66.2167 127.175 66.842 127.175 67.542C127.175 68.242 127.03 68.8673 126.741 69.418C126.461 69.9593 126.059 70.3887 125.537 70.706C125.023 71.014 124.421 71.168 123.731 71.168C123.161 71.168 122.653 71.0513 122.205 70.818C121.766 70.5847 121.43 70.258 121.197 69.838V74.08H120.021ZM123.605 70.146C124.071 70.146 124.482 70.0387 124.837 69.824C125.191 69.6 125.471 69.292 125.677 68.9C125.882 68.508 125.985 68.0507 125.985 67.528C125.985 67.0053 125.882 66.548 125.677 66.156C125.471 65.764 125.191 65.4607 124.837 65.246C124.482 65.022 124.071 64.91 123.605 64.91C123.138 64.91 122.727 65.022 122.373 65.246C122.018 65.4607 121.738 65.764 121.533 66.156C121.327 66.548 121.225 67.0053 121.225 67.528C121.225 68.0507 121.327 68.508 121.533 68.9C121.738 69.292 122.018 69.6 122.373 69.824C122.727 70.0387 123.138 70.146 123.605 70.146ZM128.812 71V60.92H129.988V65.246C130.221 64.8167 130.552 64.4853 130.982 64.252C131.411 64.0093 131.878 63.888 132.382 63.888C133.184 63.888 133.828 64.14 134.314 64.644C134.799 65.1387 135.042 65.904 135.042 66.94V71H133.88V67.066C133.88 65.6193 133.296 64.896 132.13 64.896C131.523 64.896 131.014 65.1153 130.604 65.554C130.193 65.9833 129.988 66.5993 129.988 67.402V71H128.812ZM139.987 71.168C139.334 71.168 138.746 71.0187 138.223 70.72C137.701 70.4213 137.285 70.0013 136.977 69.46C136.679 68.9093 136.529 68.2653 136.529 67.528C136.529 66.7907 136.683 66.1513 136.991 65.61C137.299 65.0593 137.715 64.6347 138.237 64.336C138.769 64.0373 139.362 63.888 140.015 63.888C140.669 63.888 141.257 64.0373 141.779 64.336C142.302 64.6347 142.713 65.0593 143.011 65.61C143.319 66.1513 143.473 66.7907 143.473 67.528C143.473 68.2653 143.319 68.9093 143.011 69.46C142.703 70.0013 142.283 70.4213 141.751 70.72C141.229 71.0187 140.641 71.168 139.987 71.168ZM139.987 70.16C140.389 70.16 140.762 70.062 141.107 69.866C141.453 69.67 141.733 69.376 141.947 68.984C142.162 68.592 142.269 68.1067 142.269 67.528C142.269 66.9493 142.162 66.464 141.947 66.072C141.742 65.68 141.467 65.386 141.121 65.19C140.776 64.994 140.407 64.896 140.015 64.896C139.614 64.896 139.241 64.994 138.895 65.19C138.55 65.386 138.27 65.68 138.055 66.072C137.841 66.464 137.733 66.9493 137.733 67.528C137.733 68.1067 137.841 68.592 138.055 68.984C138.27 69.376 138.545 69.67 138.881 69.866C139.227 70.062 139.595 70.16 139.987 70.16ZM145.109 71V64.056H146.173L146.243 65.302C146.467 64.8633 146.789 64.518 147.209 64.266C147.629 64.014 148.105 63.888 148.637 63.888C149.458 63.888 150.111 64.14 150.597 64.644C151.091 65.1387 151.339 65.904 151.339 66.94V71H150.163V67.066C150.163 65.6193 149.565 64.896 148.371 64.896C147.773 64.896 147.274 65.1153 146.873 65.554C146.481 65.9833 146.285 66.5993 146.285 67.402V71H145.109ZM156.242 71.168C155.58 71.168 154.992 71.0187 154.478 70.72C153.965 70.412 153.559 69.9873 153.26 69.446C152.971 68.9047 152.826 68.2653 152.826 67.528C152.826 66.8 152.971 66.1653 153.26 65.624C153.55 65.0733 153.951 64.6487 154.464 64.35C154.987 64.042 155.589 63.888 156.27 63.888C156.942 63.888 157.521 64.042 158.006 64.35C158.501 64.6487 158.879 65.0453 159.14 65.54C159.402 66.0347 159.532 66.5667 159.532 67.136C159.532 67.2387 159.528 67.3413 159.518 67.444C159.518 67.5467 159.518 67.6633 159.518 67.794H153.988C154.016 68.326 154.138 68.7693 154.352 69.124C154.576 69.4693 154.852 69.7307 155.178 69.908C155.514 70.0853 155.869 70.174 156.242 70.174C156.728 70.174 157.134 70.062 157.46 69.838C157.787 69.614 158.025 69.3107 158.174 68.928H159.336C159.15 69.572 158.79 70.1087 158.258 70.538C157.736 70.958 157.064 71.168 156.242 71.168ZM156.242 64.882C155.682 64.882 155.183 65.0547 154.744 65.4C154.315 65.736 154.068 66.2307 154.002 66.884H158.37C158.342 66.2587 158.128 65.7687 157.726 65.414C157.325 65.0593 156.83 64.882 156.242 64.882ZM164.796 71V64.056H165.86L165.93 65.302C166.154 64.8633 166.476 64.518 166.896 64.266C167.316 64.014 167.792 63.888 168.324 63.888C169.145 63.888 169.799 64.14 170.284 64.644C170.779 65.1387 171.026 65.904 171.026 66.94V71H169.85V67.066C169.85 65.6193 169.253 64.896 168.058 64.896C167.461 64.896 166.961 65.1153 166.56 65.554C166.168 65.9833 165.972 66.5993 165.972 67.402V71H164.796ZM175.342 71.168C174.52 71.168 173.867 70.9207 173.382 70.426C172.896 69.922 172.654 69.152 172.654 68.116V64.056H173.83V67.99C173.83 69.4367 174.422 70.16 175.608 70.16C176.214 70.16 176.714 69.9453 177.106 69.516C177.507 69.0773 177.708 68.4567 177.708 67.654V64.056H178.884V71H177.82L177.736 69.754C177.521 70.1927 177.199 70.538 176.77 70.79C176.35 71.042 175.874 71.168 175.342 71.168ZM180.82 71V64.056H181.884L181.968 65.064C182.192 64.6907 182.49 64.4013 182.864 64.196C183.237 63.9907 183.657 63.888 184.124 63.888C184.674 63.888 185.146 64 185.538 64.224C185.939 64.448 186.247 64.7887 186.462 65.246C186.704 64.826 187.036 64.4947 187.456 64.252C187.885 64.0093 188.347 63.888 188.842 63.888C189.672 63.888 190.335 64.14 190.83 64.644C191.324 65.1387 191.572 65.904 191.572 66.94V71H190.41V67.066C190.41 66.3473 190.265 65.806 189.976 65.442C189.686 65.078 189.271 64.896 188.73 64.896C188.17 64.896 187.703 65.1153 187.33 65.554C186.966 65.9833 186.784 66.5993 186.784 67.402V71H185.608V67.066C185.608 66.3473 185.463 65.806 185.174 65.442C184.884 65.078 184.469 64.896 183.928 64.896C183.377 64.896 182.915 65.1153 182.542 65.554C182.178 65.9833 181.996 66.5993 181.996 67.402V71H180.82ZM197.053 71.168C196.484 71.168 195.975 71.0513 195.527 70.818C195.088 70.5847 194.752 70.258 194.519 69.838L194.407 71H193.343V60.92H194.519V65.204C194.743 64.868 195.06 64.5647 195.471 64.294C195.891 64.0233 196.423 63.888 197.067 63.888C197.758 63.888 198.36 64.0467 198.873 64.364C199.386 64.6813 199.783 65.1153 200.063 65.666C200.352 66.2167 200.497 66.842 200.497 67.542C200.497 68.242 200.352 68.8673 200.063 69.418C199.783 69.9593 199.382 70.3887 198.859 70.706C198.346 71.014 197.744 71.168 197.053 71.168ZM196.927 70.146C197.394 70.146 197.804 70.0387 198.159 69.824C198.514 69.6 198.794 69.292 198.999 68.9C199.204 68.508 199.307 68.0507 199.307 67.528C199.307 67.0053 199.204 66.548 198.999 66.156C198.794 65.764 198.514 65.4607 198.159 65.246C197.804 65.022 197.394 64.91 196.927 64.91C196.46 64.91 196.05 65.022 195.695 65.246C195.34 65.4607 195.06 65.764 194.855 66.156C194.65 66.548 194.547 67.0053 194.547 67.528C194.547 68.0507 194.65 68.508 194.855 68.9C195.06 69.292 195.34 69.6 195.695 69.824C196.05 70.0387 196.46 70.146 196.927 70.146ZM205.256 71.168C204.593 71.168 204.005 71.0187 203.492 70.72C202.979 70.412 202.573 69.9873 202.274 69.446C201.985 68.9047 201.84 68.2653 201.84 67.528C201.84 66.8 201.985 66.1653 202.274 65.624C202.563 65.0733 202.965 64.6487 203.478 64.35C204.001 64.042 204.603 63.888 205.284 63.888C205.956 63.888 206.535 64.042 207.02 64.35C207.515 64.6487 207.893 65.0453 208.154 65.54C208.415 66.0347 208.546 66.5667 208.546 67.136C208.546 67.2387 208.541 67.3413 208.532 67.444C208.532 67.5467 208.532 67.6633 208.532 67.794H203.002C203.03 68.326 203.151 68.7693 203.366 69.124C203.59 69.4693 203.865 69.7307 204.192 69.908C204.528 70.0853 204.883 70.174 205.256 70.174C205.741 70.174 206.147 70.062 206.474 69.838C206.801 69.614 207.039 69.3107 207.188 68.928H208.35C208.163 69.572 207.804 70.1087 207.272 70.538C206.749 70.958 206.077 71.168 205.256 71.168ZM205.256 64.882C204.696 64.882 204.197 65.0547 203.758 65.4C203.329 65.736 203.081 66.2307 203.016 66.884H207.384C207.356 66.2587 207.141 65.7687 206.74 65.414C206.339 65.0593 205.844 64.882 205.256 64.882ZM210.105 71V64.056H211.169L211.267 65.386C211.481 64.9287 211.808 64.5647 212.247 64.294C212.685 64.0233 213.227 63.888 213.871 63.888V65.12H213.549C213.138 65.12 212.76 65.1947 212.415 65.344C212.069 65.484 211.794 65.7267 211.589 66.072C211.383 66.4173 211.281 66.8933 211.281 67.5V71H210.105ZM215.036 71.07C214.803 71.07 214.607 70.9953 214.448 70.846C214.299 70.6873 214.224 70.496 214.224 70.272C214.224 70.048 214.299 69.8613 214.448 69.712C214.607 69.5533 214.803 69.474 215.036 69.474C215.26 69.474 215.447 69.5533 215.596 69.712C215.755 69.8613 215.834 70.048 215.834 70.272C215.834 70.496 215.755 70.6873 215.596 70.846C215.447 70.9953 215.26 71.07 215.036 71.07Z" fill="#888888"/>
<path d="M4.708 22.022L0.55 6.6H3.058L6.116 19.36L9.636 6.6H12.21L15.62 19.36L18.678 6.6H21.186L16.962 22H14.234L10.868 9.922L7.392 22L4.708 22.022ZM27.203 22.264C26.1323 22.264 25.179 22.0293 24.343 21.56C23.5217 21.076 22.8763 20.4087 22.407 19.558C21.9377 18.7073 21.703 17.7173 21.703 16.588C21.703 15.444 21.9303 14.4393 22.385 13.574C22.8543 12.7087 23.4997 12.034 24.321 11.55C25.157 11.066 26.125 10.824 27.225 10.824C28.2957 10.824 29.227 11.066 30.019 11.55C30.811 12.0193 31.427 12.65 31.867 13.442C32.307 14.234 32.527 15.1067 32.527 16.06C32.527 16.2067 32.5197 16.368 32.505 16.544C32.505 16.7053 32.4977 16.8887 32.483 17.094H23.991C24.0643 18.15 24.409 18.9567 25.025 19.514C25.6557 20.0567 26.3817 20.328 27.203 20.328C27.863 20.328 28.413 20.1813 28.853 19.888C29.3077 19.58 29.645 19.1693 29.865 18.656H32.197C31.9037 19.6827 31.317 20.5407 30.437 21.23C29.5717 21.9193 28.4937 22.264 27.203 22.264ZM27.203 12.738C26.4257 12.738 25.7363 12.9727 25.135 13.442C24.5337 13.8967 24.167 14.586 24.035 15.51H30.195C30.151 14.6593 29.8503 13.9847 29.293 13.486C28.7357 12.9873 28.039 12.738 27.203 12.738ZM34.2867 11.77L35.5187 6.6H38.0487L35.9147 11.77H34.2867ZM43.2683 22L39.1763 11.088H41.6183L44.6543 19.778L47.6903 11.088H50.1103L46.0403 22H43.2683ZM56.5721 22.264C55.5015 22.264 54.5481 22.0293 53.7121 21.56C52.8908 21.076 52.2455 20.4087 51.7761 19.558C51.3068 18.7073 51.0721 17.7173 51.0721 16.588C51.0721 15.444 51.2995 14.4393 51.7541 13.574C52.2235 12.7087 52.8688 12.034 53.6901 11.55C54.5261 11.066 55.4941 10.824 56.5941 10.824C57.6648 10.824 58.5961 11.066 59.3881 11.55C60.1801 12.0193 60.7961 12.65 61.2361 13.442C61.6761 14.234 61.8961 15.1067 61.8961 16.06C61.8961 16.2067 61.8888 16.368 61.8741 16.544C61.8741 16.7053 61.8668 16.8887 61.8521 17.094H53.3601C53.4335 18.15 53.7781 18.9567 54.3941 19.514C55.0248 20.0567 55.7508 20.328 56.5721 20.328C57.2321 20.328 57.7821 20.1813 58.2221 19.888C58.6768 19.58 59.0141 19.1693 59.2341 18.656H61.5661C61.2728 19.6827 60.6861 20.5407 59.8061 21.23C58.9408 21.9193 57.8628 22.264 56.5721 22.264ZM56.5721 12.738C55.7948 12.738 55.1055 12.9727 54.5041 13.442C53.9028 13.8967 53.5361 14.586 53.4041 15.51H59.5641C59.5201 14.6593 59.2195 13.9847 58.6621 13.486C58.1048 12.9873 57.4081 12.738 56.5721 12.738ZM74.2148 22.264C72.8361 22.264 71.6994 21.9267 70.8048 21.252C69.9101 20.5773 69.3968 19.6827 69.2648 18.568H71.6188C71.7361 19.0667 72.0148 19.4993 72.4548 19.866C72.8948 20.218 73.4741 20.394 74.1928 20.394C74.8968 20.394 75.4101 20.2473 75.7328 19.954C76.0554 19.6607 76.2168 19.3233 76.2168 18.942C76.2168 18.3847 75.9894 18.0107 75.5348 17.82C75.0948 17.6147 74.4788 17.4313 73.6868 17.27C73.0708 17.138 72.4548 16.962 71.8388 16.742C71.2374 16.522 70.7314 16.214 70.3208 15.818C69.9248 15.4073 69.7268 14.8573 69.7268 14.168C69.7268 13.2147 70.0934 12.4227 70.8268 11.792C71.5601 11.1467 72.5868 10.824 73.9068 10.824C75.1241 10.824 76.1068 11.1173 76.8548 11.704C77.6174 12.2907 78.0648 13.1193 78.1968 14.19H75.9528C75.8794 13.7207 75.6594 13.354 75.2928 13.09C74.9408 12.826 74.4641 12.694 73.8628 12.694C73.2761 12.694 72.8214 12.8187 72.4988 13.068C72.1761 13.3027 72.0148 13.6107 72.0148 13.992C72.0148 14.3733 72.2348 14.674 72.6748 14.894C73.1294 15.114 73.7234 15.312 74.4568 15.488C75.1901 15.6493 75.8648 15.84 76.4808 16.06C77.1114 16.2653 77.6174 16.5733 77.9988 16.984C78.3801 17.3947 78.5708 17.996 78.5708 18.788C78.5854 19.7853 78.1968 20.614 77.4048 21.274C76.6274 21.934 75.5641 22.264 74.2148 22.264ZM86.2206 22.264C85.1499 22.264 84.1966 22.0293 83.3606 21.56C82.5392 21.076 81.8939 20.4087 81.4246 19.558C80.9552 18.7073 80.7206 17.7173 80.7206 16.588C80.7206 15.444 80.9479 14.4393 81.4026 13.574C81.8719 12.7087 82.5172 12.034 83.3386 11.55C84.1746 11.066 85.1426 10.824 86.2426 10.824C87.3132 10.824 88.2446 11.066 89.0366 11.55C89.8286 12.0193 90.4446 12.65 90.8846 13.442C91.3246 14.234 91.5446 15.1067 91.5446 16.06C91.5446 16.2067 91.5372 16.368 91.5226 16.544C91.5226 16.7053 91.5152 16.8887 91.5006 17.094H83.0086C83.0819 18.15 83.4266 18.9567 84.0426 19.514C84.6732 20.0567 85.3992 20.328 86.2206 20.328C86.8806 20.328 87.4306 20.1813 87.8706 19.888C88.3252 19.58 88.6626 19.1693 88.8826 18.656H91.2146C90.9212 19.6827 90.3346 20.5407 89.4546 21.23C88.5892 21.9193 87.5112 22.264 86.2206 22.264ZM86.2206 12.738C85.4432 12.738 84.7539 12.9727 84.1526 13.442C83.5512 13.8967 83.1846 14.586 83.0526 15.51H89.2126C89.1686 14.6593 88.8679 13.9847 88.3106 13.486C87.7532 12.9873 87.0566 12.738 86.2206 12.738ZM93.9642 22V11.088H96.0322L96.2082 13.002C96.5456 12.3273 97.0369 11.7993 97.6822 11.418C98.3422 11.022 99.0976 10.824 99.9482 10.824C101.268 10.824 102.302 11.2347 103.05 12.056C103.813 12.8773 104.194 14.102 104.194 15.73V22H101.884V15.972C101.884 13.86 101.019 12.804 99.2882 12.804C98.4229 12.804 97.7042 13.112 97.1322 13.728C96.5749 14.344 96.2962 15.224 96.2962 16.368V22H93.9642ZM111.517 22C110.446 22 109.595 21.7433 108.965 21.23C108.334 20.702 108.019 19.7707 108.019 18.436V13.046H106.149V11.088H108.019L108.305 8.316H110.351V11.088H113.431V13.046H110.351V18.436C110.351 19.0373 110.475 19.4553 110.725 19.69C110.989 19.91 111.436 20.02 112.067 20.02H113.321V22H111.517ZM128.572 22.264C127.047 22.264 125.712 21.9267 124.568 21.252C123.424 20.5773 122.53 19.646 121.884 18.458C121.239 17.2553 120.916 15.8693 120.916 14.3C120.916 12.7307 121.239 11.352 121.884 10.164C122.53 8.96133 123.424 8.02267 124.568 7.348C125.712 6.67333 127.047 6.336 128.572 6.336C130.098 6.336 131.432 6.67333 132.576 7.348C133.72 8.02267 134.608 8.96133 135.238 10.164C135.884 11.352 136.206 12.7307 136.206 14.3C136.206 15.8693 135.884 17.2553 135.238 18.458C134.608 19.646 133.72 20.5773 132.576 21.252C131.432 21.9267 130.098 22.264 128.572 22.264ZM128.572 20.174C129.628 20.174 130.545 19.9393 131.322 19.47C132.114 19.0007 132.73 18.326 133.17 17.446C133.61 16.566 133.83 15.5173 133.83 14.3C133.83 13.0827 133.61 12.034 133.17 11.154C132.73 10.274 132.114 9.59933 131.322 9.13C130.545 8.66067 129.628 8.426 128.572 8.426C127.516 8.426 126.592 8.66067 125.8 9.13C125.008 9.59933 124.392 10.274 123.952 11.154C123.527 12.034 123.314 13.0827 123.314 14.3C123.314 15.5173 123.527 16.566 123.952 17.446C124.392 18.326 125.008 19.0007 125.8 19.47C126.592 19.9393 127.516 20.174 128.572 20.174ZM141.725 22V8.492H137.171V6.6H148.589V8.492H144.057V22H141.725ZM150.771 22V6.6H156.161C157.364 6.6 158.361 6.80533 159.153 7.216C159.945 7.612 160.532 8.162 160.913 8.866C161.309 9.55533 161.507 10.34 161.507 11.22C161.507 12.056 161.316 12.826 160.935 13.53C160.568 14.2193 159.989 14.7693 159.197 15.18C158.405 15.5907 157.393 15.796 156.161 15.796H153.103V22H150.771ZM153.103 13.882H156.051C157.151 13.882 157.936 13.6473 158.405 13.178C158.889 12.694 159.131 12.0413 159.131 11.22C159.131 10.3693 158.889 9.70933 158.405 9.24C157.936 8.756 157.151 8.514 156.051 8.514H153.103V13.882ZM176.219 22.264C174.694 22.264 173.374 21.934 172.259 21.274C171.159 20.5993 170.308 19.668 169.707 18.48C169.106 17.2773 168.805 15.8913 168.805 14.322C168.805 12.738 169.106 11.352 169.707 10.164C170.308 8.96133 171.159 8.02267 172.259 7.348C173.374 6.67333 174.694 6.336 176.219 6.336C178.023 6.336 179.497 6.776 180.641 7.656C181.785 8.536 182.511 9.768 182.819 11.352H180.223C180.018 10.4573 179.578 9.746 178.903 9.218C178.228 8.69 177.326 8.426 176.197 8.426C174.657 8.426 173.44 8.954 172.545 10.01C171.65 11.0513 171.203 12.4887 171.203 14.322C171.203 16.1407 171.65 17.5707 172.545 18.612C173.44 19.6533 174.657 20.174 176.197 20.174C177.326 20.174 178.228 19.9247 178.903 19.426C179.578 18.9273 180.018 18.2453 180.223 17.38H182.819C182.511 18.9053 181.785 20.1007 180.641 20.966C179.497 21.8313 178.023 22.264 176.219 22.264ZM190.398 22.264C189.357 22.264 188.418 22.0293 187.582 21.56C186.761 21.076 186.108 20.4087 185.624 19.558C185.14 18.6927 184.898 17.688 184.898 16.544C184.898 15.4 185.14 14.4027 185.624 13.552C186.123 12.6867 186.79 12.0193 187.626 11.55C188.462 11.066 189.394 10.824 190.42 10.824C191.462 10.824 192.393 11.066 193.214 11.55C194.05 12.0193 194.71 12.6867 195.194 13.552C195.693 14.4027 195.942 15.4 195.942 16.544C195.942 17.688 195.693 18.6927 195.194 19.558C194.71 20.4087 194.05 21.076 193.214 21.56C192.378 22.0293 191.44 22.264 190.398 22.264ZM190.398 20.262C190.956 20.262 191.469 20.1227 191.938 19.844C192.422 19.5653 192.811 19.1547 193.104 18.612C193.398 18.0547 193.544 17.3653 193.544 16.544C193.544 15.7227 193.398 15.0407 193.104 14.498C192.826 13.9407 192.444 13.5227 191.96 13.244C191.491 12.9653 190.978 12.826 190.42 12.826C189.863 12.826 189.342 12.9653 188.858 13.244C188.389 13.5227 188.008 13.9407 187.714 14.498C187.421 15.0407 187.274 15.7227 187.274 16.544C187.274 17.3653 187.421 18.0547 187.714 18.612C188.008 19.1547 188.389 19.5653 188.858 19.844C189.328 20.1227 189.841 20.262 190.398 20.262ZM203.436 22.264C202.38 22.264 201.449 22.0147 200.642 21.516C199.836 21.0173 199.205 20.3353 198.75 19.47C198.296 18.6047 198.068 17.622 198.068 16.522C198.068 15.422 198.296 14.4467 198.75 13.596C199.205 12.7307 199.836 12.056 200.642 11.572C201.464 11.0733 202.402 10.824 203.458 10.824C204.324 10.824 205.079 10.9927 205.724 11.33C206.384 11.6673 206.898 12.144 207.264 12.76V6.16H209.596V22H207.506L207.264 20.306C206.912 20.8193 206.428 21.274 205.812 21.67C205.196 22.066 204.404 22.264 203.436 22.264ZM203.854 20.24C204.852 20.24 205.666 19.8953 206.296 19.206C206.942 18.5167 207.264 17.6293 207.264 16.544C207.264 15.444 206.942 14.5567 206.296 13.882C205.666 13.1927 204.852 12.848 203.854 12.848C202.857 12.848 202.036 13.1927 201.39 13.882C200.745 14.5567 200.422 15.444 200.422 16.544C200.422 17.2627 200.569 17.9007 200.862 18.458C201.156 19.0153 201.559 19.4553 202.072 19.778C202.6 20.086 203.194 20.24 203.854 20.24ZM217.641 22.264C216.57 22.264 215.617 22.0293 214.781 21.56C213.959 21.076 213.314 20.4087 212.845 19.558C212.375 18.7073 212.141 17.7173 212.141 16.588C212.141 15.444 212.368 14.4393 212.823 13.574C213.292 12.7087 213.937 12.034 214.759 11.55C215.595 11.066 216.563 10.824 217.663 10.824C218.733 10.824 219.665 11.066 220.457 11.55C221.249 12.0193 221.865 12.65 222.305 13.442C222.745 14.234 222.965 15.1067 222.965 16.06C222.965 16.2067 222.957 16.368 222.943 16.544C222.943 16.7053 222.935 16.8887 222.921 17.094H214.429C214.502 18.15 214.847 18.9567 215.463 19.514C216.093 20.0567 216.819 20.328 217.641 20.328C218.301 20.328 218.851 20.1813 219.291 19.888C219.745 19.58 220.083 19.1693 220.303 18.656H222.635C222.341 19.6827 221.755 20.5407 220.875 21.23C220.009 21.9193 218.931 22.264 217.641 22.264ZM217.641 12.738C216.863 12.738 216.174 12.9727 215.573 13.442C214.971 13.8967 214.605 14.586 214.473 15.51H220.633C220.589 14.6593 220.288 13.9847 219.731 13.486C219.173 12.9873 218.477 12.738 217.641 12.738Z" fill="white"/>
</g>
<defs>
<clipPath id="clip0_0_1">
<rect width="414" height="896" fill="white" transform="translate(-101 -313)"/>
</clipPath>
</defs>
</svg>
