<svg width="20" height="20" viewBox="0 0 20 20" fill="none" xmlns="http://www.w3.org/2000/svg">
<path d="M7.94564 0C6.85227 0.00785 5.98603 0.847583 5.93939 1.9849C5.94734 3.0916 6.79598 3.94937 7.94564 3.99167C8.96941 3.9778 9.87879 3.13375 9.93054 1.9849C9.92277 0.8827 9.07913 0.05025 7.94564 0ZM8.50033 4.43958C8.04499 4.43958 7.66079 4.5925 7.34772 4.89843C7.09338 5.15372 6.80861 5.71678 6.89981 6.16875H6.87846L8.05241 11.825C8.17349 12.4729 8.70671 12.8906 9.41856 12.9349C11.0538 12.9304 12.827 12.8933 14.4982 12.9136L17.3159 17.8229C17.633 18.4921 18.4448 18.633 19.0342 18.1432C19.3169 17.8627 19.4313 17.3853 19.2368 16.9693L15.9712 11.2912C15.7359 10.8044 15.2717 10.5301 14.6904 10.5016H11.0618L10.6352 8.4099H13.4738C14.0874 8.4553 14.5295 7.98698 14.4024 7.34272C14.309 7.02792 13.9828 6.73808 13.6019 6.72347H10.2722C10.1044 5.86575 10.1311 5.34725 9.47169 4.75992C9.19421 4.54645 8.87029 4.43958 8.50033 4.43958ZM5.43834 6.86042C5.34812 6.86172 5.25833 6.87307 5.17063 6.89427C3.91323 7.38352 2.78201 8.22428 1.90499 9.39167C1.13218 10.4815 0.700109 11.7933 0.666992 13.2339C0.679859 14.9412 1.41301 16.6933 2.72689 18.0151C4.00036 19.228 5.76797 19.9601 7.66804 20C9.05391 19.9924 10.4393 19.5831 11.7024 18.7729C12.8369 18.0023 13.726 16.8965 14.2634 15.5177C14.363 15.2758 14.4484 15.0051 14.5196 14.7063C14.6238 14.2365 14.3601 13.8549 13.8581 13.7031C13.4016 13.602 12.9933 13.8539 12.8337 14.3438C12.7913 14.5561 12.7268 14.7635 12.6415 14.9625C12.279 15.921 11.6043 16.7506 10.7097 17.3958C9.83996 17.9873 8.79831 18.3094 7.66804 18.3349C6.32389 18.3254 5.02918 17.813 3.94356 16.8412C3.01074 15.9368 2.42719 14.6426 2.39616 13.2339C2.40213 12.2296 2.72553 11.2386 3.33523 10.3417C3.93314 9.51155 4.77016 8.87047 5.78991 8.4526C6.21962 8.31167 6.45113 7.86677 6.30189 7.38542C6.15774 7.0394 5.81816 6.85528 5.43834 6.86042Z" fill="#AAAAAA"/>
</svg>
