<svg width="21" height="21" viewBox="0 0 21 21" fill="none" xmlns="http://www.w3.org/2000/svg">
<path d="M19.6134 10.5L20.7634 8.51246C20.9016 8.27334 20.9392 7.98912 20.8679 7.72228C20.7966 7.45545 20.6223 7.22786 20.3832 7.08955L18.3936 5.93955V3.64788C18.3936 3.37161 18.2839 3.10666 18.0885 2.91131C17.8932 2.71596 17.6282 2.60621 17.3519 2.60621H15.0613L13.9124 0.617672C13.7736 0.379043 13.5464 0.204656 13.2801 0.132255C13.1479 0.0964381 13.01 0.0872026 12.8743 0.105084C12.7386 0.122965 12.6078 0.167607 12.4894 0.236422L10.4999 1.38642L8.51027 0.23538C8.27102 0.0972525 7.9867 0.0598206 7.71985 0.131318C7.45301 0.202816 7.22549 0.377387 7.08735 0.61663L5.93735 2.60621H3.64673C3.37046 2.60621 3.10551 2.71596 2.91016 2.91131C2.71481 3.10666 2.60506 3.37161 2.60506 3.64788V5.9385L0.615478 7.08851C0.496762 7.15679 0.392708 7.24786 0.309296 7.35649C0.225883 7.46511 0.164756 7.58914 0.129425 7.72146C0.094095 7.85378 0.0852581 7.99178 0.103422 8.12752C0.121587 8.26327 0.166394 8.39409 0.23527 8.51246L1.38527 10.5L0.23527 12.4875C0.0977583 12.7268 0.0604492 13.0108 0.131477 13.2776C0.202504 13.5443 0.376108 13.7722 0.614437 13.9114L2.60402 15.0614V17.352C2.60402 17.6283 2.71377 17.8933 2.90912 18.0886C3.10447 18.284 3.36942 18.3937 3.64569 18.3937H5.93735L7.08735 20.3833C7.17957 20.5409 7.31124 20.6719 7.46941 20.7632C7.62758 20.8545 7.8068 20.9031 7.98944 20.9041C8.17069 20.9041 8.35089 20.8562 8.51131 20.7635L10.4988 19.6135L12.4884 20.7635C12.7276 20.9014 13.0117 20.9389 13.2785 20.8676C13.5452 20.7963 13.7728 20.6222 13.9113 20.3833L15.0603 18.3937H17.3509C17.6272 18.3937 17.8921 18.284 18.0875 18.0886C18.2828 17.8933 18.3926 17.6283 18.3926 17.352V15.0614L20.3821 13.9114C20.5007 13.8429 20.6045 13.7518 20.6878 13.6431C20.771 13.5345 20.832 13.4105 20.8674 13.2782C20.9027 13.146 20.9116 13.0081 20.8936 12.8724C20.8755 12.7367 20.8309 12.6059 20.7624 12.4875L19.6134 10.5ZM7.89464 5.28121C8.30918 5.28135 8.70669 5.44616 8.99971 5.73938C9.29274 6.0326 9.45728 6.43022 9.45714 6.84476C9.457 7.25929 9.2922 7.6568 8.99898 7.94983C8.70576 8.24285 8.30814 8.40739 7.8936 8.40726C7.47906 8.40712 7.08156 8.24231 6.78853 7.94909C6.49551 7.65587 6.33096 7.25825 6.3311 6.84371C6.33124 6.42917 6.49605 6.03167 6.78927 5.73864C7.08249 5.44562 7.4801 5.28108 7.89464 5.28121ZM8.20714 15.2812L6.54048 14.0323L12.7905 5.69892L14.4571 6.94788L8.20714 15.2812ZM13.103 15.6979C12.8977 15.6978 12.6945 15.6573 12.5049 15.5787C12.3153 15.5001 12.143 15.3849 11.9979 15.2397C11.8528 15.0945 11.7377 14.9222 11.6593 14.7325C11.5808 14.5429 11.5404 14.3396 11.5405 14.1343C11.5405 13.9291 11.581 13.7258 11.6597 13.5362C11.7383 13.3466 11.8535 13.1744 11.9986 13.0293C12.1438 12.8842 12.3162 12.7691 12.5058 12.6906C12.6955 12.6121 12.8988 12.5718 13.104 12.5718C13.5186 12.572 13.9161 12.7368 14.2091 13.03C14.5021 13.3232 14.6667 13.7208 14.6665 14.1354C14.6664 14.5499 14.5016 14.9474 14.2084 15.2404C13.9151 15.5335 13.5175 15.698 13.103 15.6979Z" fill="#111111"/>
</svg>
