<svg width="91" height="52" viewBox="0 0 91 52" fill="none" xmlns="http://www.w3.org/2000/svg">
<rect width="91" height="52" fill="#383838"/>
<g clip-path="url(#clip0_0_1)">
<rect width="414" height="896" transform="translate(-323 -204)" fill="#111111"/>
<path opacity="0.3" d="M86.9214 23.784V17.6708H83.2917V23.784H78.9934V14.3277H75.8413V7.25937H73.2623V0H67.9133V7.25937H65.3343V14.3277H62.2778V5.8266H60.5584V1.52829H59.5077V5.8266H53.3946V32.9537H48.7142V30.0882H45.8487V32.9537H41.1683V23.784H32.7627V17.6708H29.133V23.784H28.942V35.5327H25.1212V28.6554H20.5364V35.5327H16.7157V14.3277H13.7546V7.25937H2.86554V14.3277H0V51.6753H16.7157H28.942H41.1683H53.3946H62.2778H78.9934H91.2197V23.784H86.9214Z" fill="white"/>
<path opacity="0.4" d="M5.82645 16.5247H1.8147V18.8171H5.82645V16.5247Z" fill="white"/>
<path opacity="0.4" d="M10.7937 18.8171H14.8054V16.5247H10.7937V18.8171Z" fill="white"/>
<path opacity="0.4" d="M5.82645 21.0139H1.8147V23.3063H5.82645V21.0139Z" fill="white"/>
<path opacity="0.4" d="M10.7937 23.3064H14.8054V21.014H10.7937V23.3064Z" fill="white"/>
<path opacity="0.4" d="M5.82645 25.5034H1.8147V27.7959H5.82645V25.5034Z" fill="white"/>
<path opacity="0.4" d="M10.7937 27.7958H14.8054V25.5033H10.7937V27.7958Z" fill="white"/>
<path opacity="0.4" d="M5.82645 29.9927H1.8147V32.2851H5.82645V29.9927Z" fill="white"/>
<path opacity="0.4" d="M10.7937 32.2852H14.8054V29.9927H10.7937V32.2852Z" fill="white"/>
<path opacity="0.4" d="M5.82645 34.4821H1.8147V36.7745H5.82645V34.4821Z" fill="white"/>
<path opacity="0.4" d="M10.7937 36.7744H14.8054V34.482H10.7937V36.7744Z" fill="white"/>
<path opacity="0.4" d="M5.82645 38.9714H1.8147V41.2639H5.82645V38.9714Z" fill="white"/>
<path opacity="0.4" d="M10.7937 41.2638H14.8054V38.9714H10.7937V41.2638Z" fill="white"/>
<path opacity="0.4" d="M5.82645 43.4607H1.8147V45.7531H5.82645V43.4607Z" fill="white"/>
<path opacity="0.4" d="M10.7937 45.7531H14.8054V43.4606H10.7937V45.7531Z" fill="white"/>
<path opacity="0.4" d="M27.5092 37.8252H18.1484V38.9714H27.5092V37.8252Z" fill="white"/>
<path opacity="0.4" d="M27.5092 39.5444H18.1484V40.6907H27.5092V39.5444Z" fill="white"/>
<path opacity="0.4" d="M27.5092 41.2638H18.1484V42.41H27.5092V41.2638Z" fill="white"/>
<path opacity="0.4" d="M51.9618 38.3982H42.6011V39.5444H51.9618V38.3982Z" fill="white"/>
<path opacity="0.4" d="M51.9618 40.1176H42.6011V41.2638H51.9618V40.1176Z" fill="white"/>
<path opacity="0.4" d="M51.9618 41.8369H42.6011V42.9831H51.9618V41.8369Z" fill="white"/>
<path opacity="0.4" d="M27.5092 42.9832H18.1484V44.1294H27.5092V42.9832Z" fill="white"/>
<path opacity="0.4" d="M27.5092 44.7024H18.1484V45.8486H27.5092V44.7024Z" fill="white"/>
<path opacity="0.4" d="M27.5092 46.4218H18.1484V47.568H27.5092V46.4218Z" fill="white"/>
<path opacity="0.4" d="M33.5267 25.981H30.9478V29.3241H33.5267V25.981Z" fill="white"/>
<path opacity="0.4" d="M36.5836 29.324H39.1626V25.9808H36.5836V29.324Z" fill="white"/>
<path opacity="0.4" d="M33.5267 31.33H30.9478V34.6731H33.5267V31.33Z" fill="white"/>
<path opacity="0.4" d="M36.5836 34.673H39.1626V31.3298H36.5836V34.673Z" fill="white"/>
<path opacity="0.4" d="M33.5267 36.679H30.9478V40.0221H33.5267V36.679Z" fill="white"/>
<path opacity="0.4" d="M36.5836 40.0221H39.1626V36.679H36.5836V40.0221Z" fill="white"/>
<path opacity="0.4" d="M33.5267 42.028H30.9478V45.3711H33.5267V42.028Z" fill="white"/>
<path opacity="0.4" d="M36.5836 45.3711H39.1626V42.028H36.5836V45.3711Z" fill="white"/>
<path opacity="0.4" d="M56.8332 8.02344H53.3945V12.4173H56.8332V8.02344Z" fill="white"/>
<path opacity="0.4" d="M56.8332 14.3276H53.3945V18.7215H56.8332V14.3276Z" fill="white"/>
<path opacity="0.4" d="M56.8332 20.632H53.3945V25.0258H56.8332V20.632Z" fill="white"/>
<path opacity="0.4" d="M56.8332 26.9362H53.3945V31.33H56.8332V26.9362Z" fill="white"/>
<path opacity="0.4" d="M56.8332 33.2402H53.3945V37.6341H56.8332V33.2402Z" fill="white"/>
<path opacity="0.4" d="M56.8332 39.5444H53.3945V43.9383H56.8332V39.5444Z" fill="white"/>
<path opacity="0.4" d="M77.0353 17.0022H64.2358V20.7274H77.0353V17.0022Z" fill="white"/>
<path opacity="0.4" d="M77.0831 25.0258H64.2837V28.751H77.0831V25.0258Z" fill="white"/>
<path opacity="0.4" d="M77.1307 33.0492H64.3313V36.7744H77.1307V33.0492Z" fill="white"/>
<path opacity="0.4" d="M77.1786 41.0728H64.3792V44.798H77.1786V41.0728Z" fill="white"/>
<path opacity="0.4" d="M4.5848 9.26526H2.86548V12.8949H4.5848V9.26526Z" fill="white"/>
<path opacity="0.4" d="M91.2197 25.981H86.9214V31.521H91.2197V25.981Z" fill="white"/>
<path opacity="0.4" d="M91.2197 34.0044H86.9214V39.5444H91.2197V34.0044Z" fill="white"/>
<path opacity="0.4" d="M91.2197 42.028H86.9214V47.568H91.2197V42.028Z" fill="white"/>
<path d="M67.3879 50.5137C67.4259 50.5137 67.4623 50.4986 67.4892 50.4718C67.5161 50.4449 67.5312 50.4084 67.5312 50.3704C67.5312 50.3325 67.5161 50.296 67.4892 50.2691C67.4623 50.2423 67.4259 50.2272 67.3879 50.2272C67.3499 50.2272 67.3135 50.2423 67.2866 50.2691C67.2597 50.296 67.2446 50.3325 67.2446 50.3704C67.2446 50.4084 67.2597 50.4449 67.2866 50.4718C67.3135 50.4986 67.3499 50.5137 67.3879 50.5137Z" fill="white"/>
<g filter="url(#filter0_d_0_1)">
<rect x="-301" y="-80" width="300" height="50" rx="8" fill="url(#paint0_linear_0_1)" shape-rendering="crispEdges"/>
</g>
</g>
<defs>
<filter id="filter0_d_0_1" x="-336" y="-115" width="370" height="120" filterUnits="userSpaceOnUse" color-interpolation-filters="sRGB">
<feFlood flood-opacity="0" result="BackgroundImageFix"/>
<feColorMatrix in="SourceAlpha" type="matrix" values="0 0 0 0 0 0 0 0 0 0 0 0 0 0 0 0 0 0 127 0" result="hardAlpha"/>
<feMorphology radius="10" operator="dilate" in="SourceAlpha" result="effect1_dropShadow_0_1"/>
<feOffset/>
<feGaussianBlur stdDeviation="12.5"/>
<feComposite in2="hardAlpha" operator="out"/>
<feColorMatrix type="matrix" values="0 0 0 0 0.2 0 0 0 0 0.2 0 0 0 0 0.2 0 0 0 0.25 0"/>
<feBlend mode="normal" in2="BackgroundImageFix" result="effect1_dropShadow_0_1"/>
<feBlend mode="normal" in="SourceGraphic" in2="effect1_dropShadow_0_1" result="shape"/>
</filter>
<linearGradient id="paint0_linear_0_1" x1="-301" y1="-76" x2="22.5" y2="-15.5" gradientUnits="userSpaceOnUse">
<stop stop-color="#666666" stop-opacity="0.8"/>
<stop offset="1" stop-color="#555555" stop-opacity="0.4"/>
<stop offset="1" stop-color="#555555" stop-opacity="0.4"/>
</linearGradient>
<clipPath id="clip0_0_1">
<rect width="414" height="896" fill="white" transform="translate(-323 -204)"/>
</clipPath>
</defs>
</svg>
