<svg width="16" height="16" viewBox="0 0 16 16" fill="none" xmlns="http://www.w3.org/2000/svg">
<path d="M7.99989 0.320068C3.75749 0.320068 0.319092 3.75847 0.319092 8.00007C0.318987 9.00875 0.517585 10.0076 0.903544 10.9395C1.2895 11.8714 1.85526 12.7182 2.56851 13.4314C3.28176 14.1447 4.12853 14.7105 5.06045 15.0964C5.99238 15.4824 6.9912 15.681 7.99989 15.6809C12.2407 15.6809 15.6799 12.2425 15.6799 8.00007C15.6799 3.75847 12.2407 0.320068 7.99989 0.320068ZM8.71669 3.09287C9.46549 3.09287 9.68549 3.52727 9.68549 4.02407C9.68549 4.64407 9.18949 5.21767 8.34229 5.21767C7.63349 5.21767 7.29589 4.86167 7.31669 4.27207C7.31669 3.77527 7.73189 3.09287 8.71669 3.09287ZM6.79829 12.6001C6.28629 12.6001 5.91269 12.2889 6.27029 10.9249L6.85669 8.50487C6.95829 8.11767 6.97509 7.96247 6.85669 7.96247C6.70389 7.96247 6.03909 8.22967 5.64709 8.49367L5.39189 8.07527C6.63589 7.03607 8.06629 6.42647 8.67829 6.42647C9.19029 6.42647 9.27509 7.03127 9.01989 7.96247L8.34789 10.5065C8.22869 10.9561 8.27989 11.1113 8.39909 11.1113C8.55269 11.1113 9.05509 10.9257 9.54949 10.5361L9.83909 10.9249C8.62869 12.1345 7.30949 12.6001 6.79829 12.6001Z" fill="#AAAAAA"/>
</svg>
