<svg width="18" height="18" viewBox="0 0 18 18" fill="none" xmlns="http://www.w3.org/2000/svg">
<path d="M9.83317 4.83329H7.33317C7.11216 4.83329 6.9002 4.92109 6.74392 5.07737C6.58764 5.23365 6.49984 5.44561 6.49984 5.66663V12.3333C6.49984 12.5543 6.58764 12.7663 6.74392 12.9225C6.9002 13.0788 7.11216 13.1666 7.33317 13.1666C7.55419 13.1666 7.76615 13.0788 7.92243 12.9225C8.07871 12.7663 8.16651 12.5543 8.16651 12.3333V10.6666H9.83317C10.4962 10.6666 11.1321 10.4032 11.6009 9.93439C12.0698 9.46555 12.3332 8.82967 12.3332 8.16663V7.33329C12.3332 6.67025 12.0698 6.03437 11.6009 5.56553C11.1321 5.09668 10.4962 4.83329 9.83317 4.83329ZM10.6665 8.16663C10.6665 8.38764 10.5787 8.5996 10.4224 8.75588C10.2661 8.91216 10.0542 8.99996 9.83317 8.99996H8.16651V6.49996H9.83317C10.0542 6.49996 10.2661 6.58776 10.4224 6.74404C10.5787 6.90032 10.6665 7.11228 10.6665 7.33329V8.16663ZM8.99984 0.666626C7.35166 0.666626 5.7405 1.15537 4.37009 2.07105C2.99968 2.98672 1.93158 4.28821 1.30084 5.81093C0.670115 7.33365 0.505087 9.0092 0.82663 10.6257C1.14817 12.2422 1.94185 13.7271 3.10728 14.8925C4.27272 16.058 5.75758 16.8516 7.37409 17.1732C8.9906 17.4947 10.6662 17.3297 12.1889 16.699C13.7116 16.0682 15.0131 15.0001 15.9288 13.6297C16.8444 12.2593 17.3332 10.6481 17.3332 8.99996C17.3332 7.90561 17.1176 6.82198 16.6988 5.81093C16.28 4.79988 15.6662 3.88122 14.8924 3.1074C14.1186 2.33358 13.1999 1.71975 12.1889 1.30096C11.1778 0.882174 10.0942 0.666626 8.99984 0.666626ZM8.99984 15.6666C7.6813 15.6666 6.39237 15.2756 5.29604 14.5431C4.19971 13.8105 3.34523 12.7694 2.84064 11.5512C2.33606 10.333 2.20404 8.99256 2.46127 7.69936C2.71851 6.40615 3.35345 5.21826 4.2858 4.28591C5.21815 3.35356 6.40603 2.71863 7.69924 2.46139C8.99244 2.20416 10.3329 2.33618 11.5511 2.84076C12.7692 3.34535 13.8104 4.19983 14.543 5.29616C15.2755 6.39248 15.6665 7.68142 15.6665 8.99996C15.6665 10.7681 14.9641 12.4638 13.7139 13.714C12.4636 14.9642 10.768 15.6666 8.99984 15.6666Z" fill="#AAAAAA"/>
</svg>
